HIERARCHY
ROOT Hips
{
	OFFSET 0.00000 0.00000 0.00000
	CHANNELS 6 Xposition Yposition Zposition Zrotation Yrotation Xrotation 
	JOINT LHipJoint
	{
		OFFSET 0 0 0
		CHANNELS 3 Zrotation Yrotation Xrotation
		JOINT LeftUpLeg
		{
			OFFSET 1.44361 -1.63093 0.70831
			CHANNELS 3 Zrotation Yrotation Xrotation
			JOINT LeftLeg
			{
				OFFSET 2.20103 -6.04728 0.00000
				CHANNELS 3 Zrotation Yrotation Xrotation
				JOINT LeftFoot
				{
					OFFSET 2.54154 -6.98283 0.00000
					CHANNELS 3 Zrotation Yrotation Xrotation
					JOINT LeftToeBase
					{
						OFFSET 0.05971 -0.16406 1.77582
						CHANNELS 3 Zrotation Yrotation Xrotation
						End Site
						{
							OFFSET 0.00000 -0.00000 0.90832
						}
					}
				}
			}
		}
	}
	JOINT RHipJoint
	{
		OFFSET 0 0 0
		CHANNELS 3 Zrotation Yrotation Xrotation
		JOINT RightUpLeg
		{
			OFFSET -1.65838 -1.63093 0.70830
			CHANNELS 3 Zrotation Yrotation Xrotation
			JOINT RightLeg
			{
				OFFSET -2.26926 -6.23475 0.00000
				CHANNELS 3 Zrotation Yrotation Xrotation
				JOINT RightFoot
				{
					OFFSET -2.34808 -6.45129 0.00000
					CHANNELS 3 Zrotation Yrotation Xrotation
					JOINT RightToeBase
					{
						OFFSET -0.18633 -0.51195 1.68539
						CHANNELS 3 Zrotation Yrotation Xrotation
						End Site
						{
							OFFSET -0.00000 -0.00000 0.88927
						}
					}
				}
			}
		}
	}
	JOINT LowerBack
	{
		OFFSET 0 0 0
		CHANNELS 3 Zrotation Yrotation Xrotation
		JOINT Spine
		{
			OFFSET -0.10393 2.01691 0.06920
			CHANNELS 3 Zrotation Yrotation Xrotation
			JOINT Spine1
			{
				OFFSET 0.04092 2.01302 -0.05283
				CHANNELS 3 Zrotation Yrotation Xrotation
				JOINT Neck
				{
					OFFSET 0 0 0
					CHANNELS 3 Zrotation Yrotation Xrotation
					JOINT Neck1
					{
						OFFSET -0.02870 1.58978 -0.03113
						CHANNELS 3 Zrotation Yrotation Xrotation
						JOINT Head
						{
							OFFSET 0.11532 1.54326 -0.29195
							CHANNELS 3 Zrotation Yrotation Xrotation
							End Site
							{
								OFFSET 0.04056 1.59999 -0.09535
							}
						}
					}
				}
				JOINT LeftShoulder
				{
					OFFSET 0 0 0
					CHANNELS 3 Zrotation Yrotation Xrotation
					JOINT LeftArm
					{
						OFFSET 3.30641 1.15764 0.01104
						CHANNELS 3 Zrotation Yrotation Xrotation
						JOINT LeftForeArm
						{
							OFFSET 4.63208 -0.00000 0.00000
							CHANNELS 3 Zrotation Yrotation Xrotation
							JOINT LeftHand
							{
								OFFSET 3.41924 -0.00000 -0.00000
								CHANNELS 3 Zrotation Yrotation Xrotation
								JOINT LeftFingerBase
								{
									OFFSET 0 0 0
									CHANNELS 3 Zrotation Yrotation Xrotation
									JOINT LeftHandIndex1
									{
										OFFSET 0.62537 -0.00000 -0.00000
										CHANNELS 3 Zrotation Yrotation Xrotation
										End Site
										{
											OFFSET 0.50419 -0.00000 -0.00000
										}
									}
								}
								JOINT LThumb
								{
									OFFSET 0 0 0
									CHANNELS 3 Zrotation Yrotation Xrotation
									End Site
									{
										OFFSET 0.51189 -0.00000 0.51189
									}
								}
							}
						}
					}
				}
				JOINT RightShoulder
				{
					OFFSET 0 0 0
					CHANNELS 3 Zrotation Yrotation Xrotation
					JOINT RightArm
					{
						OFFSET -3.78081 1.02180 -0.16609
						CHANNELS 3 Zrotation Yrotation Xrotation
						JOINT RightForeArm
						{
							OFFSET -4.40640 -0.00000 -0.00000
							CHANNELS 3 Zrotation Yrotation Xrotation
							JOINT RightHand
							{
								OFFSET -3.44675 -0.00000 0.00000
								CHANNELS 3 Zrotation Yrotation Xrotation
								JOINT RightFingerBase
								{
									OFFSET 0 0 0
									CHANNELS 3 Zrotation Yrotation Xrotation
									JOINT RightHandIndex1
									{
										OFFSET -0.51367 -0.00000 -0.00000
										CHANNELS 3 Zrotation Yrotation Xrotation
										End Site
										{
											OFFSET -0.41414 -0.00000 -0.00000
										}
									}
								}
								JOINT RThumb
								{
									OFFSET 0 0 0
									CHANNELS 3 Zrotation Yrotation Xrotation
									End Site
									{
										OFFSET -0.42046 -0.00000 0.42046
									}
								}
							}
						}
					}
				}
			}
		}
	}
}
MOTION
Frames: 13
Frame Time: 0.153846
0.00 0.00 0.00 0 0 0 0 0 0 -21 0 0 0 0 0 0 0 0 0 0 0 0 0 0 21 0 0 0 0 0 0 0 0 0 0 0 0 0 0 0 0 0 0 0 0 0 0 -16 0 0 21 0 0 11 0 0 0 -8 0 0 0 0 0 0 0 0 0 0 0 0 0 0 0 0 0 0 0 0 8 0 0 0 0 0 0 0 0 0 0 0 0 0 0 0 0 0
0.00 0.00 0.00 177.9250 4.0046 -169.7180 0.0000 0.0000 0.0000 -18.1993 -13.7735 -12.5268 1.6938 8.1968 23.3133 1.1313 -4.4394 -19.1185 3.2379 -11.0705 -32.5180 0.0000 0.0000 0.0000 20.1089 7.1027 -8.5208 -0.6117 -5.0057 13.9249 -0.8158 7.0266 -16.1416 -0.0067 0.5300 -1.4564 -6.8642 0.7858 -8.2281 0.8282 1.7088 1.0114 4.9546 0.6225 5.4675 -3.2121 1.0078 -8.3100 6.8425 -2.8283 29.5415 2.5241 -1.8807 10.9956 0.0000 -0.0000 0.0000 -88.9999 0.2140 16.3114 9.1156 -15.3445 -1.2305 -0.0000 -0.0000 29.3840 31.2693 -21.2277 -12.4008 -7.1250 0.0000 -0.0000 1.6270 5.5489 -1.4627 0.0000 -0.0000 0.0000 93.7556 -4.4764 -20.7594 -9.6495 16.1894 -1.3756 0.0000 0.0000 26.5367 -21.7205 -31.0386 11.6072 7.1250 -0.0000 -0.0000 12.0041 -62.5210 -5.1502
0.00 0.00 0.00 177.9240 1.9912 -169.9760 0.0000 0.0000 0.0000 -17.3518 -17.8169 -22.4554 5.0249 13.4118 40.9303 1.3334 -3.0605 -21.0386 3.4595 -11.4041 -33.6551 0.0000 0.0000 0.0000 20.5703 5.5761 -8.1746 -0.5883 -4.9109 13.6547 -0.9474 7.9914 -17.4400 -0.0040 0.4077 -1.1202 -5.9405 0.7832 -6.3849 1.2198 1.4764 1.3934 4.7713 0.5397 4.8632 -3.8008 0.6968 -7.6873 6.3200 -2.4896 27.6977 2.4719 -1.7247 10.1568 0.0000 -0.0000 0.0000 -89.8258 -0.1303 15.1759 9.1264 -15.3616 -1.2334 -0.0000 -0.0000 29.6609 30.3285 -22.0560 -12.3901 -7.1250 0.0000 -0.0000 0.9181 4.8369 -0.8375 0.0000 -0.0000 0.0000 92.4441 -3.9410 -15.0757 -10.2156 17.0761 -1.5376 0.0000 0.0000 23.0899 -25.6435 -31.9810 14.2654 7.1250 -0.0000 -0.0000 7.9990 -64.5181 -3.7911
0.00 0.00 0.00 179.1760 7.5196 -164.6180 0.0000 0.0000 0.0000 -5.1299 -20.7675 -58.4486 5.1997 13.6052 41.6783 0.6730 -5.7196 -14.6176 0.0374 -1.2475 -3.4301 0.0000 0.0000 0.0000 20.0368 3.9728 0.9408 -0.5330 -4.6780 12.9925 0.0360 3.7550 -0.4101 -1.4546 7.6233 -21.5756 -5.0729 4.8813 2.5445 -0.6965 6.6000 3.1271 1.9877 3.2740 1.3234 -4.2333 -0.9456 -4.3037 5.7819 -2.9776 18.8968 2.3113 -1.6871 6.5734 0.0000 -0.0000 0.0000 -87.4956 3.9479 7.3917 7.9907 -13.5378 -0.9499 -0.0000 -0.0000 29.3355 28.6751 -21.6539 -11.4098 -7.1250 0.0000 -0.0000 -0.0543 5.6322 0.0487 0.0000 -0.0000 0.0000 92.0688 11.0346 21.3295 -18.8649 29.2505 -4.9647 0.0000 0.0000 4.7892 -21.1227 -31.2903 11.3455 7.1250 -0.0000 -0.0000 12.8723 -62.6150 -5.5576
0.00 0.00 0.00 179.2030 8.4414 -162.5050 0.0000 0.0000 0.0000 -11.1203 -17.6324 -49.9680 4.4589 12.7472 38.4293 0.4043 -7.2600 -11.6636 0.1515 2.5085 6.9131 0.0000 0.0000 0.0000 17.6496 6.2350 -4.3907 -2.0820 -9.0349 25.9045 -0.5752 -4.7109 13.5017 -2.2739 9.4148 -27.1016 -8.2249 4.1925 2.1895 -1.7960 5.7517 3.0632 2.6364 2.8283 1.3505 -3.7852 -0.8131 -3.4395 7.1340 -2.7568 16.2299 2.6787 -1.4305 5.5801 -0.0000 0.0000 0.0000 -85.5686 1.3701 2.7555 6.4076 -10.9403 -0.6143 -0.0000 -0.0000 37.8428 27.6372 -20.4129 -10.3498 -7.1250 0.0000 -0.0000 -0.5480 7.1941 0.4751 -0.0000 0.0000 0.0000 91.3404 5.7113 19.7183 -19.1748 29.6354 -5.1170 0.0000 0.0000 3.7250 -20.8613 -33.2752 11.8098 7.1250 -0.0000 -0.0000 14.7539 -64.4815 -7.0318
0.00 0.00 0.00 178.9290 7.8032 -162.0930 0.0000 0.0000 0.0000 -14.0715 -17.0724 -45.1113 3.8377 11.9412 35.5243 0.3783 -9.5739 -11.9902 0.1962 2.8521 7.8672 0.0000 0.0000 0.0000 16.2840 7.0958 -13.3327 -5.3395 -13.7562 42.2696 -0.2983 -7.9155 10.4529 -1.8483 8.5427 -24.3749 -8.9962 3.2864 2.4399 -1.7683 4.5215 3.0405 3.1097 2.2105 1.2633 -3.8560 -0.4540 -3.2129 7.3326 -2.1525 15.2091 2.7847 -1.1178 5.1916 -0.0000 -0.0000 0.0000 -85.5580 0.3791 6.8485 6.9024 -11.7584 -0.7116 -0.0000 -0.0000 35.5007 27.3823 -19.9753 -10.0342 -7.1250 0.0000 -0.0000 -0.6577 7.7193 0.5634 -0.0000 -0.0000 0.0000 90.2889 2.9942 17.3449 -17.9267 28.0632 -4.5147 0.0000 0.0000 4.3230 -23.0668 -32.9427 13.0386 7.1250 -0.0000 -0.0000 11.8562 -64.7656 -5.7080
0.00 0.00 0.00 177.9820 6.7987 -163.0830 0.0000 0.0000 0.0000 -18.0821 -17.3671 -36.2678 2.8594 10.4638 30.4922 0.4281 -10.9297 -13.0223 0.2314 3.0958 8.5456 0.0000 0.0000 0.0000 14.5574 11.1246 -25.5479 -11.1459 -18.0057 63.2544 0.0726 -5.1449 -3.9240 -1.8478 8.5416 -24.3716 -10.3654 2.5758 3.5738 -1.6133 3.4609 3.1700 4.0057 1.6903 0.8199 -3.2958 -0.3957 -3.1061 7.2148 -2.0959 14.9801 2.6551 -1.0742 5.0951 0.0000 0.0000 0.0000 -85.2411 -1.2909 17.6773 8.5075 -14.3720 -1.0746 -0.0000 -0.0000 28.0577 29.6900 -20.5661 -11.3259 -7.1250 0.0000 -0.0000 0.7313 6.6217 -0.6421 0.0000 0.0000 0.0000 89.8612 -1.4671 10.3562 -15.9818 25.4959 -3.6381 0.0000 0.0000 6.7459 -22.1071 -32.3673 12.2685 7.1250 -0.0000 -0.0000 12.5419 -63.9354 -5.8007
0.00 0.00 0.00 177.2400 3.3151 -167.0270 0.0000 0.0000 0.0000 -25.9509 -11.9329 -10.8039 0.7741 5.6179 15.6796 0.2850 -15.8461 -13.9129 0.4121 4.1208 11.4167 0.0000 0.0000 0.0000 7.5656 18.8178 -51.3320 -7.3164 -15.5926 50.0611 -0.8644 -1.7851 -18.2947 -1.0657 6.5629 -18.4267 -10.9253 -0.3850 3.4650 0.2710 -0.5892 3.0171 6.4360 -0.4182 1.3481 -3.2409 -0.5102 -4.8051 6.0602 -0.3817 18.6557 2.5005 0.4523 6.4579 0.0000 0.0000 0.0000 -86.7866 -6.5019 35.3090 17.3419 -27.3063 -4.2430 -0.0000 -0.0000 16.9908 32.3883 -21.1135 -12.8709 -7.1250 0.0000 -0.0000 2.3418 5.4239 -2.1118 0.0000 0.0000 0.0000 91.6293 -12.2186 -23.1483 -9.2626 15.5779 -1.2697 0.0000 0.0000 28.6768 -19.9588 -33.9969 11.4783 7.1250 -0.0000 -0.0000 16.4579 -64.9247 -8.0332
0.00 0.00 0.00 176.6950 0.6789 -168.2060 0.0000 0.0000 0.0000 -27.5751 -9.0724 -3.2481 0.5713 4.8406 13.4544 0.0343 -18.1047 -13.0438 0.3989 4.0550 11.2314 0.0000 0.0000 0.0000 4.9686 18.1613 -52.6910 -2.8690 -10.4799 30.5452 -0.7046 1.4435 -15.4318 -1.6497 8.0948 -23.0025 -10.9452 -1.6677 2.9779 0.8305 -2.2480 3.1451 7.0396 -1.3083 2.1043 -3.1840 -0.4301 -5.5955 5.4467 -0.0868 20.2696 2.3526 0.6136 7.1052 -0.0000 -0.0000 0.0000 -87.6110 -9.3987 37.9373 19.7364 -30.3235 -5.3976 -0.0000 -0.0000 17.1010 32.5955 -22.3401 -13.6606 -7.1250 0.0000 -0.0000 2.2727 3.9954 -2.1105 -0.0000 -0.0000 0.0000 93.2693 -13.7408 -50.0266 -6.8669 11.7001 -0.7044 0.0000 0.0000 49.8746 -18.9651 -35.1442 11.1895 7.1250 -0.0000 -0.0000 18.7457 -65.7268 -9.5313
0.00 0.00 0.00 177.5150 -3.9529 -165.1390 0.0000 0.0000 0.0000 -24.8759 -8.1355 5.2023 1.1592 6.8355 19.2289 -0.0468 -4.0267 0.1546 0.1887 -2.7974 -7.7152 0.0000 0.0000 0.0000 9.1156 16.5043 -48.1455 -2.6710 -10.1425 29.4394 -0.1726 -0.9813 -8.2694 -1.0144 6.4081 -17.9731 -6.3292 -2.6791 1.1496 3.1458 -3.7669 3.0309 6.7599 -2.1649 3.1263 -3.8503 -0.2320 -6.0595 4.2330 0.3245 18.9025 2.0716 0.5780 6.7331 -0.0000 -0.0000 0.0000 -91.7255 -7.1941 37.4251 18.0628 -28.2375 -4.5789 -0.0000 -0.0000 17.4992 32.9926 -22.1539 -13.7566 -7.1250 0.0000 -0.0000 2.5474 4.1082 -2.3607 -0.0000 -0.0000 0.0000 93.9016 -12.6870 -59.8275 -5.9586 10.1932 -0.5319 0.0000 0.0000 59.4192 -14.9457 -34.6460 8.6290 7.1250 -0.0000 -0.0000 22.7903 -64.1551 -10.8486
0.00 0.00 0.00 177.6500 -3.4261 -164.3730 0.0000 0.0000 0.0000 -22.9515 -5.6644 -3.1874 3.6878 11.7330 34.7938 0.0890 7.8142 7.2054 0.3731 -3.9234 -10.8613 0.0000 0.0000 0.0000 12.2468 15.5351 -41.3577 -2.4663 -9.7763 28.2555 -0.3351 1.5975 -10.4940 -0.9372 6.1665 -17.2683 -4.8014 -2.1288 0.9662 3.3840 -3.0193 2.5659 6.1654 -1.7172 2.5433 -3.9219 -0.3461 -6.0212 3.6646 0.1140 17.1710 1.8545 0.3594 6.1858 0.0000 0.0000 0.0000 -91.9282 -4.5681 33.7771 12.9426 -21.2030 -2.4325 -0.0000 -0.0000 23.2287 28.0934 -23.1261 -11.8408 -7.1250 0.0000 -0.0000 -0.6180 4.1489 0.5717 0.0000 0.0000 0.0000 91.0446 -8.7138 -42.9676 -6.4545 11.0180 -0.6232 0.0000 0.0000 45.7863 -15.9928 -33.0322 8.8798 7.1250 -0.0000 -0.0000 20.0728 -62.9526 -8.9361
0.00 0.00 0.00 178.1500 -2.9467 -166.1100 0.0000 0.0000 0.0000 -21.5461 -6.2931 -15.5208 8.6979 16.6094 55.0395 -0.1306 6.3964 -2.5359 0.7627 -5.5773 -15.5627 0.0000 0.0000 0.0000 15.9287 16.2990 -31.3100 -2.1539 -9.1795 26.3584 -0.6845 2.4396 -14.9894 -0.3488 3.7944 -10.4990 -3.9977 -1.1683 0.9352 3.2218 -1.7315 2.5786 5.5620 -1.0461 2.3533 -3.1943 -0.8207 -7.7832 2.3276 -0.2504 19.1448 1.3078 0.1726 7.1453 0.0000 0.0000 0.0000 -91.0770 -0.3218 27.2852 11.5348 -19.1033 -1.9474 -0.0000 -0.0000 25.7091 29.4431 -23.8732 -12.8681 -7.1250 0.0000 -0.0000 0.1004 3.0393 -0.0949 0.0000 0.0000 0.0000 88.9697 -2.7601 -22.8234 -8.3546 14.1261 -1.0370 0.0000 0.0000 33.2884 -22.8959 -33.4570 13.1070 7.1250 -0.0000 -0.0000 12.4869 -65.2239 -6.1486
0.00 0.00 0.00 180.7110 3.3596 -171.9140 0.0000 0.0000 0.0000 -4.6352 -21.0738 -44.6775 1.1668 6.8570 19.2923 0.4095 0.0614 -12.1125 3.9742 -12.1260 -36.1792 0.0000 0.0000 0.0000 24.9202 2.3956 3.0048 -0.5221 -4.6309 12.8587 -1.1836 13.9706 -20.4140 -1.1775 6.8872 -19.3816 -3.1642 3.8654 0.9695 0.3965 5.2865 3.1599 2.2182 2.6101 2.3878 -3.9747 -1.0021 -5.2218 6.0738 -3.1740 19.5570 2.3416 -1.7415 6.9592 -0.0000 -0.0000 0.0000 -84.9425 7.6302 -2.5832 6.4311 -10.9792 -0.6187 -0.0000 -0.0000 40.6292 25.9665 -18.6576 -8.8555 -7.1250 0.0000 -0.0000 -1.4231 9.4002 1.1720 -0.0000 -0.0000 0.0000 91.3022 16.9186 30.1341 -24.3927 35.5768 -7.9339 0.0000 -0.0000 -2.5626 -22.0264 -31.6994 12.0014 7.1250 -0.0000 -0.0000 12.1278 -63.2552 -5.4133
